<svg xmlns="http://www.w3.org/2000/svg" width="446.416" height="390.5" viewBox="0 0 446.416 390.5">
  <g id="box_2_" data-name="box (2)" transform="translate(0 -27.958)">
    <g id="Groupe_1" data-name="Groupe 1">
      <path id="Tracé_1" data-name="Tracé 1" d="M443.215,199.258l-64-37.6,64-37.6a5.63,5.63,0,0,0,2.4-8,4.82,4.82,0,0,0-2-2l-72.4-42.4-72.8-42.8a5.45,5.45,0,0,0-6,0l-69.2,40.8-69.6-40.8a5.44,5.44,0,0,0-6,0l-72.4,42.8-72,42.4a4.82,4.82,0,0,0-2,2,5.826,5.826,0,0,0,2,8l64,37.6-64.4,37.6a5.826,5.826,0,0,0-2,8,4.82,4.82,0,0,0,2,2l69.6,40.8v79.2a5.549,5.549,0,0,0,2.8,4.8l144,83.2c.4,0,.4.4.8.4a.392.392,0,0,1,.4.4,5.2,5.2,0,0,0,4,0,.392.392,0,0,0,.4-.4c.4,0,.4,0,.8-.4l143.6-83.2a5.66,5.66,0,0,0,2.8-4.8v-78.4l71.2-41.6a4.82,4.82,0,0,0,2-2A5.825,5.825,0,0,0,443.215,199.258Zm-147.6-158.8,69.6,40.8,64,37.6-61.2,36-69.6-40.8-64-37.6Zm-66.4,46,63.6,37.6,64,37.6-64,37.6-20.4,12-43.2-25.2v-99.6Zm-212,32.4,64-37.6,69.6-40.8,61.2,36-64,37.6-69.6,40.8Zm200-32.4v99.6l-43.2,25.2-20.4-12-64-37.6,64-37.6Zm-136,155.2-64-37.6,61.2-36,69.6,40.8,64,37.6-61.2,36-69.2-40.4Zm135.2,161.2-132.4-76.8v-69.2l63.6,37.6a5.45,5.45,0,0,0,6,0l62.8-36.8Zm6.8-162.8-37.6-22,37.6-22,37.6,22Zm137.6,86-132.4,76.8v-146.8l64.4,38a5.44,5.44,0,0,0,6,0l62-36.4Zm4.4-84.4-2,1.2-67.6,39.6-61.2-36,64-37.6,69.6-40.8,61.2,36Z" fill="#e30613"/>
    </g>
  </g>
</svg>
