<svg xmlns="http://www.w3.org/2000/svg" width="512.003" height="512" viewBox="0 0 512.003 512">
  <g id="box_4_" data-name="box (4)" transform="translate(0 -0.001)">
    <g id="Groupe_4" data-name="Groupe 4">
      <g id="Groupe_3" data-name="Groupe 3">
        <path id="Tracé_3" data-name="Tracé 3" d="M256,0a8.536,8.536,0,0,0-8.533,8.533v230.4a8.533,8.533,0,1,0,17.066,0V8.535A8.535,8.535,0,0,0,256,0Z" fill="#e30613"/>
      </g>
    </g>
    <g id="Groupe_6" data-name="Groupe 6">
      <g id="Groupe_5" data-name="Groupe 5">
        <path id="Tracé_4" data-name="Tracé 4" d="M313.234,181.7a8.525,8.525,0,0,0-12.066,0l-51.2,51.2a8.532,8.532,0,1,0,12.066,12.066l51.2-51.2A8.523,8.523,0,0,0,313.234,181.7Z" fill="#e30613"/>
      </g>
    </g>
    <g id="Groupe_8" data-name="Groupe 8">
      <g id="Groupe_7" data-name="Groupe 7">
        <path id="Tracé_5" data-name="Tracé 5" d="M262.034,232.9l-51.2-51.2a8.532,8.532,0,0,0-12.066,12.066l51.2,51.2A8.532,8.532,0,0,0,262.034,232.9Z" fill="#e30613"/>
      </g>
    </g>
    <g id="Groupe_10" data-name="Groupe 10">
      <g id="Groupe_9" data-name="Groupe 9">
        <path id="Tracé_6" data-name="Tracé 6" d="M507.6,231.476,183.587,52.276a8.548,8.548,0,0,0-8.516.145L4.148,154.821A8.526,8.526,0,0,0,4.4,169.6L328.671,348.8a8.551,8.551,0,0,0,8.525-.145l170.667-102.4a8.53,8.53,0,0,0-.265-14.78ZM332.622,331.487,25.635,161.836,179.627,69.582,486.375,239.233Z" fill="#e30613"/>
      </g>
    </g>
    <g id="Groupe_12" data-name="Groupe 12">
      <g id="Groupe_11" data-name="Groupe 11">
        <path id="Tracé_7" data-name="Tracé 7" d="M507.854,154.813,336.931,52.413a8.548,8.548,0,0,0-8.516-.145L4.4,231.468a8.526,8.526,0,0,0-.256,14.78l170.667,102.4a8.483,8.483,0,0,0,8.516.145L507.6,169.593a8.526,8.526,0,0,0,.256-14.78ZM179.372,331.487,25.618,239.233,332.375,69.582l153.984,92.254Z" fill="#e30613"/>
      </g>
    </g>
    <g id="Groupe_14" data-name="Groupe 14">
      <g id="Groupe_13" data-name="Groupe 13">
        <path id="Tracé_8" data-name="Tracé 8" d="M260.336,291.551a8.515,8.515,0,0,0-8.465-.119l-72.5,40.064L89.721,277.7A8.527,8.527,0,0,0,76.8,285.015V401.068a8.526,8.526,0,0,0,4.147,7.322L251.616,510.636A8.5,8.5,0,0,0,256,511.848a8.533,8.533,0,0,0,8.533-8.533V298.89A8.5,8.5,0,0,0,260.336,291.551Zm-12.868,196.71-153.6-92.023V300.084l80.947,48.572a8.528,8.528,0,0,0,8.516.154l64.137-35.447v174.9Z" fill="#e30613"/>
      </g>
    </g>
    <g id="Groupe_16" data-name="Groupe 16">
      <g id="Groupe_15" data-name="Groupe 15">
        <path id="Tracé_9" data-name="Tracé 9" d="M440.944,275.287A8.492,8.492,0,0,0,434.4,273.1l-3.379.324a8.473,8.473,0,0,0-3.584,1.178l-94.8,56.883-72.5-40.064a8.536,8.536,0,0,0-12.663,7.467V503.468a8.531,8.531,0,0,0,12.767,7.407l179.2-102.4a8.522,8.522,0,0,0,4.3-7.407V281.6A8.558,8.558,0,0,0,440.944,275.287ZM426.668,396.119,264.535,488.765v-175.4l64.137,35.448a8.548,8.548,0,0,0,8.516-.154l89.481-53.692V396.119Z" fill="#e30613"/>
      </g>
    </g>
  </g>
</svg>
