<svg xmlns="http://www.w3.org/2000/svg" width="24" height="14" viewBox="0 0 24 14">
  <g id="delivery" transform="translate(0 -7)">
    <path id="Tracé_1" data-name="Tracé 1" d="M6.5,19h-2a.5.5,0,0,1,0-1h2a.5.5,0,0,1,0,1Z" fill="#e30613"/>
    <path id="Tracé_2" data-name="Tracé 2" d="M22.75,19H21.5a.5.5,0,0,1,0-1h.835l.674-3.592A3.5,3.5,0,0,0,19.5,11H16.217l-1.591,7H17.5a.5.5,0,0,1,0,1H14a.5.5,0,0,1-.488-.61l1.818-8a.5.5,0,0,1,.488-.39H19.5A4.505,4.505,0,0,1,24,14.5l-.759,4.092A.5.5,0,0,1,22.75,19Z" fill="#e30613"/>
    <path id="Tracé_3" data-name="Tracé 3" d="M19.5,21A2.5,2.5,0,1,1,22,18.5,2.5,2.5,0,0,1,19.5,21Zm0-4A1.5,1.5,0,1,0,21,18.5,1.5,1.5,0,0,0,19.5,17Z" fill="#e30613"/>
    <path id="Tracé_4" data-name="Tracé 4" d="M8.5,21A2.5,2.5,0,1,1,11,18.5,2.5,2.5,0,0,1,8.5,21Zm0-4A1.5,1.5,0,1,0,10,18.5,1.5,1.5,0,0,0,8.5,17Z" fill="#e30613"/>
    <path id="Tracé_5" data-name="Tracé 5" d="M6.5,10h-4a.5.5,0,0,1,0-1h4a.5.5,0,0,1,0,1Z" fill="#e30613"/>
    <path id="Tracé_6" data-name="Tracé 6" d="M6.5,13h-5a.5.5,0,0,1,0-1h5a.5.5,0,0,1,0,1Z" fill="#e30613"/>
    <path id="Tracé_7" data-name="Tracé 7" d="M6.5,16H.5a.5.5,0,0,1,0-1h6a.5.5,0,0,1,0,1Z" fill="#e30613"/>
    <path id="Tracé_8" data-name="Tracé 8" d="M14,19H10.5a.5.5,0,0,1,0-1h3.1L15.873,8H4.5a.5.5,0,0,1,0-1h12a.5.5,0,0,1,.488.61l-2.5,11A.5.5,0,0,1,14,19Z" fill="#e30613"/>
  </g>
</svg>
